<svg width="186" height="71" viewBox="0 0 186 71" fill="none" xmlns="http://www.w3.org/2000/svg">
<path d="M80.5524 50.7942H76.4274V30.9817H69.3024V27.3567H87.6617V30.9817H80.5524V50.7942ZM101.818 48.9817C99.8701 50.3984 97.7399 51.1067 95.4274 51.1067C93.7503 51.1067 92.2451 50.7421 90.9117 50.0129C89.5784 49.2838 88.5211 48.289 87.7399 47.0286C86.969 45.7577 86.5836 44.3306 86.5836 42.7473C86.5836 41.2369 86.9326 39.8879 87.6305 38.7004C88.3388 37.5129 89.3024 36.5754 90.5211 35.8879C91.7503 35.2004 93.1357 34.8567 94.6774 34.8567C96.2815 34.8567 97.6878 35.2369 98.8961 35.9973C100.115 36.7473 101.063 37.7942 101.74 39.1379C102.417 40.4713 102.755 42.0234 102.755 43.7942V44.2942H90.7242C90.9117 45.0025 91.2399 45.6275 91.7086 46.1692C92.1878 46.7109 92.7815 47.1327 93.4899 47.4348C94.1982 47.7369 94.9951 47.8879 95.8805 47.8879C97.5472 47.8879 99.0888 47.3463 100.505 46.2629L101.818 48.9817ZM90.568 42.0442H99.193C99.1097 41.2629 98.8701 40.5806 98.4742 39.9973C98.0888 39.414 97.5836 38.9609 96.9586 38.6379C96.344 38.3046 95.6513 38.1379 94.8805 38.1379C94.0992 38.1379 93.4013 38.3046 92.7867 38.6379C92.1722 38.9713 91.6722 39.4348 91.2867 40.0286C90.9013 40.6119 90.6617 41.2838 90.568 42.0442ZM131.068 50.7942H127.224V42.7786C127.224 41.3619 126.927 40.2629 126.334 39.4817C125.75 38.69 124.922 38.2942 123.849 38.2942C122.766 38.2942 121.917 38.69 121.302 39.4817C120.698 40.2734 120.396 41.3723 120.396 42.7786V50.7942H116.552V42.7786C116.552 41.3619 116.255 40.2629 115.662 39.4817C115.068 38.69 114.24 38.2942 113.177 38.2942C112.084 38.2942 111.229 38.69 110.615 39.4817C110.011 40.2734 109.709 41.3723 109.709 42.7786V50.7942H105.865V35.1692H108.943L109.084 37.8254C109.615 36.8567 110.318 36.1223 111.193 35.6223C112.078 35.1119 113.12 34.8567 114.318 34.8567C115.558 34.8567 116.625 35.1275 117.521 35.6692C118.427 36.2004 119.12 36.9661 119.599 37.9661C120.12 36.9452 120.834 36.1744 121.74 35.6536C122.646 35.1223 123.714 34.8567 124.943 34.8567C126.87 34.8567 128.37 35.4713 129.443 36.7004C130.526 37.9192 131.068 39.6171 131.068 41.7942V50.7942ZM138.771 58.6067H134.927V35.1692H138.318L138.505 37.3567C139.193 36.5754 140.021 35.9661 140.99 35.5286C141.959 35.0806 143.016 34.8567 144.162 34.8567C145.62 34.8567 146.922 35.2109 148.068 35.9192C149.224 36.6275 150.13 37.5963 150.787 38.8254C151.453 40.0442 151.787 41.4296 151.787 42.9817C151.787 44.5338 151.453 45.9244 150.787 47.1536C150.13 48.3723 149.224 49.3359 148.068 50.0442C146.922 50.7525 145.62 51.1067 144.162 51.1067C143.089 51.1067 142.094 50.914 141.177 50.5286C140.261 50.1431 139.459 49.6015 138.771 48.9036V58.6067ZM143.334 47.6379C144.209 47.6379 144.985 47.44 145.662 47.0442C146.349 46.6379 146.88 46.0859 147.255 45.3879C147.641 44.6796 147.834 43.8723 147.834 42.9661C147.834 42.0598 147.641 41.2577 147.255 40.5598C146.87 39.8515 146.339 39.2994 145.662 38.9036C144.985 38.4973 144.209 38.2942 143.334 38.2942C142.511 38.2942 141.766 38.4817 141.099 38.8567C140.433 39.2213 139.896 39.7265 139.49 40.3723C139.084 41.0077 138.844 41.7369 138.771 42.5598V43.4192C138.844 44.2421 139.078 44.9713 139.474 45.6067C139.88 46.2421 140.417 46.7421 141.084 47.1067C141.75 47.4609 142.5 47.6379 143.334 47.6379ZM159.974 50.7942H156.13V38.6067H153.396V35.1692H156.13V32.4348C156.13 31.3515 156.375 30.3931 156.865 29.5598C157.365 28.7265 158.042 28.0754 158.896 27.6067C159.761 27.1275 160.755 26.8879 161.88 26.8879C162.578 26.8879 163.287 26.9869 164.005 27.1848C164.724 27.3827 165.427 27.69 166.115 28.1067L164.662 31.1067C164.318 30.8463 163.959 30.6536 163.584 30.5286C163.219 30.3931 162.854 30.3254 162.49 30.3254C161.771 30.3254 161.172 30.5806 160.693 31.0911C160.214 31.6015 159.974 32.2994 159.974 33.1848V35.1692H164.693V38.6067H159.974V50.7942ZM174.599 58.6067H170.49L173.74 50.7317L165.99 35.1692H170.318L175.568 46.3411L180.193 35.1692H184.302L174.599 58.6067Z" fill="white"/>
<g clip-path="url(#clip0_20_20)">
<path d="M24.312 15.7337L23.1582 9.17725" stroke="#FFA400" stroke-width="2" stroke-linecap="round" stroke-linejoin="round"/>
<path d="M15.7226 21.2057L10.27 17.3867" stroke="#FFA400" stroke-width="2" stroke-linecap="round" stroke-linejoin="round"/>
<path d="M13.515 31.1484L6.95856 32.305" stroke="#FFA400" stroke-width="2" stroke-linecap="round" stroke-linejoin="round"/>
<path d="M34.2575 17.9413L38.0738 12.4888" stroke="#FFA400" stroke-width="2" stroke-linecap="round" stroke-linejoin="round"/>
<path d="M26.625 39.9376C26.8384 36.2576 28.1246 32.7207 30.3248 29.7632C32.5251 26.8058 35.5431 24.5573 39.0065 23.2952C42.4698 22.0331 46.2269 21.8127 49.8141 22.6611C53.4012 23.5096 56.6615 25.3897 59.1925 28.0696C61.7235 30.7495 63.4144 34.1118 64.0567 37.7415C64.6989 41.3713 64.2643 45.1096 62.8066 48.4953C61.3488 51.8809 58.9316 54.7656 55.8534 56.7934C52.7751 58.8212 49.1705 59.9034 45.4844 59.9063H23.2969C21.5265 59.9046 19.7776 59.5177 18.1717 58.7725C16.5658 58.0272 15.1413 56.9415 13.997 55.5906C12.8527 54.2397 12.0161 52.656 11.5451 50.9494C11.0742 49.2427 10.9802 47.4541 11.2698 45.7075C11.5593 43.9609 12.2254 42.2983 13.2218 40.8349C14.2183 39.3715 15.5212 38.1425 17.0402 37.2331C18.5591 36.3237 20.2578 35.7557 22.0183 35.5685C23.7788 35.3813 25.5589 35.5794 27.2352 36.1491" stroke="#009FFD" stroke-width="2" stroke-linecap="round" stroke-linejoin="round"/>
<path d="M16.5436 37.5384C15.2981 36.0903 14.3789 34.391 13.8483 32.5562C13.3178 30.7213 13.1882 28.7937 13.4686 26.9043C13.7489 25.015 14.4325 23.208 15.473 21.6063C16.5135 20.0045 17.8865 18.6454 19.4987 17.6212C21.111 16.597 22.9248 15.9318 24.8169 15.6707C26.709 15.4095 28.6351 15.5586 30.4645 16.1078C32.2939 16.657 33.9837 17.5934 35.4192 18.8535C36.8547 20.1135 38.0021 21.6677 38.7838 23.4105" stroke="#FFA400" stroke-width="2" stroke-linecap="round" stroke-linejoin="round"/>
</g>
<defs>
<clipPath id="clip0_20_20">
<rect width="71" height="71" fill="white"/>
</clipPath>
</defs>
</svg>
